<svg xmlns="http://www.w3.org/2000/svg" viewBox="0 0 413.97 118.36"><defs><style>.cls-1,.cls-2{stroke:#000;stroke-miterlimit:10;stroke-width:2px;}.cls-2{font-size:107.39px;fill:#fff;font-family:Bauhaus93, Bauhaus 93;}</style></defs><title>Asset 1</title><g id="Layer_2" data-name="Layer 2"><g id="Layer_1-2" data-name="Layer 1"><path class="cls-1" d="M38.19,39.76V90.23H17.13V39.76H1V19.43H54.27V39.76Z"/><path class="cls-1" d="M99.82,47V62.74H86.07a7.15,7.15,0,0,0-4,.83,3.23,3.23,0,0,0-1.16,2.8c0,1.49.39,2.47,1.19,2.93s2.42.7,4.88.7h14.16V90.23H84.62q-11.67,0-17.84-5.57T60.6,68.55V40.8q0-10.17,5.84-15.77t16.42-5.6h18.31V39.76H87.73q-5.45,0-5.44,3.53a3.13,3.13,0,0,0,1.29,2.88,9.42,9.42,0,0,0,4.62.8Z"/><path class="cls-1" d="M138.93,54.7V73.38h-6.07V90.23H111.8v-45q0-13.08,7.13-20.31t20-7.24q12.45,0,18.42,6.57t6,20.25V90.23H142.3V45.88q0-4.14-1-5.75a3.8,3.8,0,0,0-3.53-1.61q-4.93,0-4.93,7.36V54.7Z"/><path class="cls-1" d="M199.35,36.53a5,5,0,0,1,2.3-.53,4.71,4.71,0,0,1,3.06,1L205,37c1.93-3.61,4.08-7.13,6.18-10.72q-5.78-8.57-15.84-8.57-9.19,0-14.94,6t-5.76,15.51V90.24h21.06V44.17a13.8,13.8,0,0,1,.1-1.65,5.24,5.24,0,0,1,.44-2.35A4.63,4.63,0,0,1,199.35,36.53Z"/><text class="cls-2" transform="translate(199.13 90.51)">NINE</text></g></g></svg>